<svg width="101" height="103" viewBox="0 0 101 103" fill="none" xmlns="http://www.w3.org/2000/svg">
<path d="M46.2914 63.9823H6.10815C6.10815 63.9823 13.0766 85.1165 24.0376 95.2843C31.502 102.205 44.0564 102.74 48.5233 102.74C57.4508 102.74 68.8272 102.172 76.2916 95.2459C89.3048 83.1852 95.4022 63.9823 95.4022 63.9823H46.2914Z" fill="#55ACEE"/>
<path d="M90.6872 75.1705C92.6184 71.3139 93.9359 68.0341 94.6767 66.0377C94.2582 65.328 93.6352 64.6418 92.854 63.9823H8.65615C7.87809 64.6418 7.25503 65.325 6.83655 66.0348C7.57121 68.0222 8.85764 71.2873 10.5967 75.0285C17.066 79.4854 30.5038 83.0581 50.7582 83.0581C70.7894 83.0581 84.1373 79.5594 90.6872 75.1705Z" fill="#3B88C3"/>
<path d="M0.509644 49.1948V62.3645C0.509644 69.2199 22.9866 74.78 50.1071 74.78C77.2338 74.78 99.7045 69.2199 99.7045 62.3645V49.1948H0.509644Z" fill="#55ACEE"/>
<path d="M6.26626 55.9467C9.05921 56.9256 27.0135 62.9944 49.6609 62.9944C75.1602 62.9944 93.846 57.7064 98.1238 54.7755C102.402 51.8388 102.24 26.3985 82.7641 16.5944C66.1335 8.2218 65.6685 0 49.819 0C26.0618 0.00295748 -15.9069 48.1656 6.26626 55.9467Z" fill="#F9D2DC"/>
<path d="M31.037 33.7243C40.0576 45.2585 60.4328 38.9176 69.1434 30.8407C76.2389 24.2574 85.1974 26.0112 95.3432 28.5221C92.5781 23.8404 88.5236 19.5284 82.73 16.6123C66.1055 8.24558 65.6405 0.0267334 49.7973 0.0267334C37.246 0.0267334 19.6141 13.4774 9.04675 27.3095C14.9179 25.4847 23.9322 24.6419 31.037 33.7243Z" fill="#F98097"/>
<path d="M31.5082 22.5774C33.2202 22.5774 34.608 21.2533 34.608 19.62C34.608 17.9866 33.2202 16.6625 31.5082 16.6625C29.7962 16.6625 28.4083 17.9866 28.4083 19.62C28.4083 21.2533 29.7962 22.5774 31.5082 22.5774Z" fill="#EA596E"/>
<path d="M50.1072 31.45C51.8192 31.45 53.207 30.1259 53.207 28.4925C53.207 26.8591 51.8192 25.535 50.1072 25.535C48.3952 25.535 47.0073 26.8591 47.0073 28.4925C47.0073 30.1259 48.3952 31.45 50.1072 31.45Z" fill="#EA596E"/>
<path d="M62.5065 16.6625C64.2185 16.6625 65.6063 15.3384 65.6063 13.705C65.6063 12.0717 64.2185 10.7476 62.5065 10.7476C60.7945 10.7476 59.4066 12.0717 59.4066 13.705C59.4066 15.3384 60.7945 16.6625 62.5065 16.6625Z" fill="#EA596E"/>
</svg>
